#N canvas -1 31 1920 979 12;
#X obj 262 307 wrap~;
#X obj 272 337 loadbang;
#X msg 272 367 1;
#X obj 262 427 snapshot~;
#X obj 272 397 metro 100;
#X obj 262 487 * 127;
#X obj 262 277 *~;
#X obj 440 75 loadbang;
#X msg 440 105 7;
#X obj 370 283 expr 1 / ($f1 / 1200);
#X obj 55 854 soundfiler;
#X obj 508 485 loadbang;
#X msg 508 515 1;
#X obj 498 575 snapshot~;
#X obj 508 545 metro 100;
#X obj 501 695 hsl 128 15 0 127 0 0 empty empty empty -2 -8 0 10 #fcfcfc
#000000 #000000 0 1;
#X obj 498 426 *~ 1000;
#X obj 55 757 loadbang;
#X text 338 787 variable: which shape;
#X floatatom 1167 322 5 0 0 0 - - - 0;
#X text 1221 324 variable: mul;
#X floatatom 1173 375 5 0 0 0 - - - 0;
#X text 1227 377 variable: add;
#X obj 852 431 *~;
#X obj 985 476 loadbang;
#X msg 985 506 1;
#X obj 975 566 snapshot~;
#X floatatom 975 596 5 0 0 0 - - - 0;
#X obj 985 536 metro 100;
#X obj 978 656 hsl 128 15 0 127 0 0 empty empty empty -2 -8 0 10 #fcfcfc
#000000 #000000 0 1;
#X obj 975 626 * 127;
#X obj 859 488 +~;
#X text 636 458 note that the range here is +/- 1;
#X obj 498 605 / 2;
#X obj 498 635 + 0.5;
#X obj 498 665 * 127;
#X obj 235 575 s \$0-loop;
#X obj 378 222 r \$0-length-send;
#X obj 55 884 table \$0-shape;
#X msg 55 787 read -resize shapes/shape01.txt \$0-shape;
#X obj 498 455 tabread4~ \$0-shape;
#X obj 438 135 s \$0-length;
#X obj 20 20 cnv 15 190 100 empty empty empty 20 12 0 14 #c7c6ff #404040
0;
#X obj 33 30 hsl 160 15 0 127 0 0 \$0-loop-send \$0-loop empty -2 -8
0 10 #9c00ff #ffffff #000000 0 1;
#X floatatom 220 30 5 0 0 1 length \$0-length \$0-length-send 0;
#X obj 260 158 r~ spine;
#X text 834 104 seeing as how all control signals should be a combination
of two modules \, maybe there should be two as subpatch?;
#X connect 0 0 3 0;
#X connect 0 0 16 0;
#X connect 1 0 2 0;
#X connect 2 0 4 0;
#X connect 3 0 5 0;
#X connect 4 0 3 0;
#X connect 5 0 36 0;
#X connect 6 0 0 0;
#X connect 7 0 8 0;
#X connect 8 0 41 0;
#X connect 9 0 6 1;
#X connect 11 0 12 0;
#X connect 12 0 14 0;
#X connect 13 0 33 0;
#X connect 14 0 13 0;
#X connect 16 0 40 0;
#X connect 17 0 39 0;
#X connect 19 0 23 1;
#X connect 21 0 31 1;
#X connect 23 0 31 0;
#X connect 24 0 25 0;
#X connect 25 0 28 0;
#X connect 26 0 27 0;
#X connect 27 0 30 0;
#X connect 28 0 26 0;
#X connect 30 0 29 0;
#X connect 31 0 26 0;
#X connect 33 0 34 0;
#X connect 34 0 35 0;
#X connect 35 0 15 0;
#X connect 37 0 9 0;
#X connect 40 0 13 0;
#X connect 45 0 6 0;
#X coords 0 -1 1 1 300 100 1 20 20;
