#N canvas -2 552 948 443 12;
#X obj 312 375 wrap~;
#X obj 322 405 loadbang;
#X msg 322 435 1;
#X obj 312 495 snapshot~;
#X obj 322 465 metro 100;
#X obj 359 519 * 127;
#X obj 312 345 *~;
#X obj 440 75 loadbang;
#X msg 440 105 7;
#X obj 370 283 expr 1 / ($f1 / 1200);
#X obj 55 854 soundfiler;
#X obj 508 485 loadbang;
#X msg 508 515 1;
#X obj 498 575 snapshot~;
#X obj 508 545 metro 100;
#X obj 501 695 hsl 128 15 0 127 0 0 empty empty empty -2 -8 0 10 #fcfcfc
#000000 #000000 0 1;
#X obj 498 426 *~ 1000;
#X floatatom 1167 322 5 0 0 0 - - - 0;
#X text 1221 324 variable: mul;
#X floatatom 1173 375 5 0 0 0 - - - 0;
#X text 1227 377 variable: add;
#X obj 852 431 *~;
#X obj 985 476 loadbang;
#X msg 985 506 1;
#X obj 975 566 snapshot~;
#X floatatom 975 596 5 0 0 0 - - - 0;
#X obj 985 536 metro 100;
#X obj 978 656 hsl 128 15 0 127 0 0 empty empty empty -2 -8 0 10 #fcfcfc
#000000 #000000 0 1;
#X obj 975 626 * 127;
#X obj 859 488 +~;
#X text 636 458 note that the range here is +/- 1;
#X obj 498 605 / 2;
#X obj 498 635 + 0.5;
#X obj 498 665 * 127;
#X obj 353 546 s \$0-loop;
#X obj 378 222 r \$0-length-send;
#X obj 55 884 table \$0-shape;
#X obj 498 455 tabread4~ \$0-shape;
#X obj 438 135 s \$0-length;
#X obj 129 21 cnv 15 190 100 empty empty empty 20 12 0 14 #c7c6ff #404040
0;
#X obj 143 30 hsl 160 15 0 127 0 0 \$0-loop-send \$0-loop empty -2
-8 0 10 #9c00ff #ffffff #000000 0 1;
#X floatatom 30 30 5 0 0 1 length \$0-length \$0-length-send 0;
#X obj 310 226 r~ spine;
#X text 834 104 seeing as how all control signals should be a combination
of two modules \, maybe there should be two as subpatch?;
#X text 31 60 shape select;
#X text 34 80 mul;
#X text 40 101 add;
#X text 112 156 okay so first iteration;
#X text 46 178 four basic sliders;
#X text 47 213 combine two sets into single signal;
#X text 55 252 and this is then applied to cutoff/pitch;
#X text 62 292 also \, a preset system live -> writes -> reads -> process
;
#X obj 96 500 bng 15 250 50 0 empty empty empty 17 7 0 10 #fcfcfc #000000
#000000;
#X floatatom 76 561 5 0 0 0 - - - 0;
#X msg 74 595 shapes/shape\$1.txt;
#X obj 255 534 bng 15 250 50 0 empty empty empty 17 7 0 10 #fcfcfc
#000000 #000000;
#X obj 227 588 symbol \$0-shape;
#X msg 116 667 read -resize \$1 \$2;
#X obj 123 635 pack s s;
#X obj 161 476 loadbang;
#X obj 161 501 t b b;
#X msg 76 532 1;
#X connect 0 0 3 0;
#X connect 0 0 16 0;
#X connect 1 0 2 0;
#X connect 2 0 4 0;
#X connect 3 0 5 0;
#X connect 4 0 3 0;
#X connect 5 0 34 0;
#X connect 6 0 0 0;
#X connect 7 0 8 0;
#X connect 8 0 38 0;
#X connect 9 0 6 1;
#X connect 11 0 12 0;
#X connect 12 0 14 0;
#X connect 13 0 31 0;
#X connect 14 0 13 0;
#X connect 16 0 37 0;
#X connect 17 0 21 1;
#X connect 19 0 29 1;
#X connect 21 0 29 0;
#X connect 22 0 23 0;
#X connect 23 0 26 0;
#X connect 24 0 25 0;
#X connect 25 0 28 0;
#X connect 26 0 24 0;
#X connect 28 0 27 0;
#X connect 29 0 24 0;
#X connect 31 0 32 0;
#X connect 32 0 33 0;
#X connect 33 0 15 0;
#X connect 35 0 9 0;
#X connect 37 0 13 0;
#X connect 42 0 6 0;
#X connect 52 0 61 0;
#X connect 53 0 54 0;
#X connect 54 0 58 0;
#X connect 55 0 56 0;
#X connect 56 0 58 1;
#X connect 57 0 10 0;
#X connect 58 0 57 0;
#X connect 59 0 60 0;
#X connect 60 0 52 0;
#X connect 60 1 55 0;
#X connect 61 0 53 0;
#X coords 0 -1 1 1 300 100 1 20 20;
