#N canvas -2 32 1904 963 12;
#X obj 55 74 loadbang;
#X msg 55 104 1;
#X obj 45 164 snapshot~;
#X floatatom 45 194 5 0 0 0 - - - 0;
#X obj 55 134 metro 100;
#X obj 48 254 hsl 128 15 0 127 0 0 empty empty empty -2 -8 0 10 #fcfcfc
#000000 #000000 0 1;
#X obj 45 224 * 127;
#X obj 45 44 phasor~ 0.000833333;
#X connect 0 0 1 0;
#X connect 1 0 4 0;
#X connect 2 0 3 0;
#X connect 3 0 6 0;
#X connect 4 0 2 0;
#X connect 6 0 5 0;
#X connect 7 0 2 0;
