#N canvas -2 32 1904 963 12;
#X obj 55 74 loadbang;
#X msg 55 104 1;
#X obj 45 164 snapshot~;
#X floatatom 45 194 5 0 0 0 - - - 0;
#X obj 55 134 metro 100;
#X obj 48 254 hsl 128 15 0 127 0 0 empty empty empty -2 -8 0 10 #fcfcfc
#000000 #000000 0 1;
#X obj 45 224 * 127;
#X obj 45 44 phasor~ 0.000833333;
#X obj 261 150 wrap~;
#X obj 271 180 loadbang;
#X msg 271 210 1;
#X obj 261 270 snapshot~;
#X floatatom 261 300 5 0 0 0 - - - 0;
#X obj 271 240 metro 100;
#X obj 264 360 hsl 128 15 0 127 0 0 empty empty empty -2 -8 0 10 #fcfcfc
#000000 #000000 0 1;
#X obj 261 330 * 127;
#X obj 261 120 *~;
#X obj 261 30 loadbang;
#X msg 261 60 7;
#X obj 261 90 expr 1 / ($f1 / 1200);
#X text 42 277 twenty minute spine;
#X text 259 379 seven second phrase;
#X obj 54 690 table shape;
#X obj 54 660 soundfiler;
#X msg 54 630 read -resize shapes/shape01.txt shape;
#X obj 507 328 loadbang;
#X msg 507 358 1;
#X obj 497 418 snapshot~;
#X obj 507 388 metro 100;
#X obj 500 538 hsl 128 15 0 127 0 0 empty empty empty -2 -8 0 10 #fcfcfc
#000000 #000000 0 1;
#X obj 497 298 tabread4~ shape;
#X obj 497 269 *~ 1000;
#X obj 54 600 loadbang;
#X text 317 58 variable: length of loop;
#X text 337 630 variable: which shape;
#X floatatom 1167 322 5 0 0 0 - - - 0;
#X text 1221 324 variable: mul;
#X floatatom 1173 375 5 0 0 0 - - - 0;
#X text 1227 377 variable: add;
#X obj 852 431 *~;
#X obj 985 476 loadbang;
#X msg 985 506 1;
#X obj 975 566 snapshot~;
#X floatatom 975 596 5 0 0 0 - - - 0;
#X obj 985 536 metro 100;
#X obj 978 656 hsl 128 15 0 127 0 0 empty empty empty -2 -8 0 10 #fcfcfc
#000000 #000000 0 1;
#X obj 975 626 * 127;
#X obj 859 488 +~;
#X text 617 296 note that the range here is +/- 1;
#X obj 497 448 / 2;
#X obj 497 478 + 0.5;
#X obj 497 508 * 127;
#X connect 0 0 1 0;
#X connect 1 0 4 0;
#X connect 2 0 3 0;
#X connect 3 0 6 0;
#X connect 4 0 2 0;
#X connect 6 0 5 0;
#X connect 7 0 2 0;
#X connect 7 0 16 0;
#X connect 8 0 11 0;
#X connect 8 0 31 0;
#X connect 9 0 10 0;
#X connect 10 0 13 0;
#X connect 11 0 12 0;
#X connect 12 0 15 0;
#X connect 13 0 11 0;
#X connect 15 0 14 0;
#X connect 16 0 8 0;
#X connect 17 0 18 0;
#X connect 18 0 19 0;
#X connect 19 0 16 1;
#X connect 24 0 23 0;
#X connect 25 0 26 0;
#X connect 26 0 28 0;
#X connect 27 0 49 0;
#X connect 28 0 27 0;
#X connect 30 0 27 0;
#X connect 31 0 30 0;
#X connect 32 0 24 0;
#X connect 35 0 39 1;
#X connect 37 0 47 1;
#X connect 39 0 47 0;
#X connect 40 0 41 0;
#X connect 41 0 44 0;
#X connect 42 0 43 0;
#X connect 43 0 46 0;
#X connect 44 0 42 0;
#X connect 46 0 45 0;
#X connect 47 0 42 0;
#X connect 49 0 50 0;
#X connect 50 0 51 0;
#X connect 51 0 29 0;
